<mxfile host="app.diagrams.net" modified="2020-12-06T13:07:09.144Z" agent="5.0 (Macintosh; Intel Mac OS X 11_0_0) AppleWebKit/537.36 (KHTML, like Gecko) Chrome/86.0.4240.198 Safari/537.36" etag="9PFAu2Zs9-_pExyA4SpI" version="13.10.9" type="github" pages="2">
  <diagram id="mz4NtQ0hjTLKF19UNtrm" name="Page-1">
    <mxGraphModel dx="945" dy="563" grid="1" gridSize="10" guides="1" tooltips="1" connect="1" arrows="1" fold="1" page="1" pageScale="1" pageWidth="827" pageHeight="1169" math="0" shadow="0">
      <root>
        <mxCell id="0" />
        <mxCell id="1" parent="0" />
        <mxCell id="c_QXUGH23HBzM4ZQqKcR-1" value="Actor" style="shape=umlActor;verticalLabelPosition=bottom;verticalAlign=top;html=1;outlineConnect=0;" parent="1" vertex="1">
          <mxGeometry x="170" y="210" width="40" height="80" as="geometry" />
        </mxCell>
        <mxCell id="c_QXUGH23HBzM4ZQqKcR-6" value="" style="endArrow=classic;dashed=1;html=1;" parent="1" edge="1">
          <mxGeometry width="50" height="50" relative="1" as="geometry">
            <mxPoint x="220" y="240" as="sourcePoint" />
            <mxPoint x="300" y="190" as="targetPoint" />
          </mxGeometry>
        </mxCell>
        <mxCell id="c_QXUGH23HBzM4ZQqKcR-7" value="" style="endArrow=classic;dashed=1;html=1;" parent="1" edge="1">
          <mxGeometry width="50" height="50" relative="1" as="geometry">
            <mxPoint x="220" y="270" as="sourcePoint" />
            <mxPoint x="360" y="270" as="targetPoint" />
          </mxGeometry>
        </mxCell>
        <mxCell id="c_QXUGH23HBzM4ZQqKcR-9" value="Log-in" style="ellipse;whiteSpace=wrap;html=1;" parent="1" vertex="1">
          <mxGeometry x="300" y="160" width="100" height="40" as="geometry" />
        </mxCell>
        <mxCell id="c_QXUGH23HBzM4ZQqKcR-10" value="Sign up" style="ellipse;whiteSpace=wrap;html=1;" parent="1" vertex="1">
          <mxGeometry x="364" y="250" width="100" height="50" as="geometry" />
        </mxCell>
        <mxCell id="c_QXUGH23HBzM4ZQqKcR-11" value="Profile" style="ellipse;whiteSpace=wrap;html=1;" parent="1" vertex="1">
          <mxGeometry x="300" y="330" width="100" height="40" as="geometry" />
        </mxCell>
        <mxCell id="c_QXUGH23HBzM4ZQqKcR-12" value="" style="endArrow=classic;dashed=1;html=1;" parent="1" edge="1">
          <mxGeometry width="50" height="50" relative="1" as="geometry">
            <mxPoint x="464" y="274.5" as="sourcePoint" />
            <mxPoint x="544" y="274.5" as="targetPoint" />
          </mxGeometry>
        </mxCell>
        <mxCell id="c_QXUGH23HBzM4ZQqKcR-13" value="Enter valid sign up info" style="ellipse;whiteSpace=wrap;html=1;" parent="1" vertex="1">
          <mxGeometry x="550" y="252.5" width="100" height="45" as="geometry" />
        </mxCell>
        <mxCell id="c_QXUGH23HBzM4ZQqKcR-14" value="" style="endArrow=classic;dashed=1;html=1;" parent="1" edge="1">
          <mxGeometry width="50" height="50" relative="1" as="geometry">
            <mxPoint x="400" y="179.5" as="sourcePoint" />
            <mxPoint x="480" y="179.5" as="targetPoint" />
          </mxGeometry>
        </mxCell>
        <mxCell id="c_QXUGH23HBzM4ZQqKcR-15" value="Enter email and password" style="ellipse;whiteSpace=wrap;html=1;" parent="1" vertex="1">
          <mxGeometry x="480" y="160" width="100" height="40" as="geometry" />
        </mxCell>
        <mxCell id="c_QXUGH23HBzM4ZQqKcR-17" value="Authorize if email and password is valid (signed up)" style="ellipse;whiteSpace=wrap;html=1;" parent="1" vertex="1">
          <mxGeometry x="670" y="155" width="110" height="50" as="geometry" />
        </mxCell>
        <mxCell id="c_QXUGH23HBzM4ZQqKcR-18" value="" style="endArrow=classic;dashed=1;html=1;" parent="1" edge="1">
          <mxGeometry width="50" height="50" relative="1" as="geometry">
            <mxPoint x="670" y="180" as="sourcePoint" />
            <mxPoint x="580" y="179.5" as="targetPoint" />
          </mxGeometry>
        </mxCell>
        <mxCell id="c_QXUGH23HBzM4ZQqKcR-19" value="" style="endArrow=classic;dashed=1;html=1;entryX=0;entryY=0.25;entryDx=0;entryDy=0;entryPerimeter=0;" parent="1" target="c_QXUGH23HBzM4ZQqKcR-11" edge="1">
          <mxGeometry width="50" height="50" relative="1" as="geometry">
            <mxPoint x="220" y="300" as="sourcePoint" />
            <mxPoint x="300" y="350" as="targetPoint" />
          </mxGeometry>
        </mxCell>
        <mxCell id="c_QXUGH23HBzM4ZQqKcR-20" value="Update profile(password) or delete profile" style="ellipse;whiteSpace=wrap;html=1;" parent="1" vertex="1">
          <mxGeometry x="180" y="430" width="110" height="50" as="geometry" />
        </mxCell>
        <mxCell id="c_QXUGH23HBzM4ZQqKcR-21" value="" style="endArrow=classic;dashed=1;html=1;" parent="1" edge="1">
          <mxGeometry width="50" height="50" relative="1" as="geometry">
            <mxPoint x="320" y="370" as="sourcePoint" />
            <mxPoint x="270" y="430" as="targetPoint" />
          </mxGeometry>
        </mxCell>
        <mxCell id="c_QXUGH23HBzM4ZQqKcR-22" value="" style="endArrow=classic;dashed=1;html=1;" parent="1" edge="1">
          <mxGeometry width="50" height="50" relative="1" as="geometry">
            <mxPoint x="360" y="370" as="sourcePoint" />
            <mxPoint x="380" y="440" as="targetPoint" />
            <Array as="points" />
          </mxGeometry>
        </mxCell>
        <mxCell id="c_QXUGH23HBzM4ZQqKcR-23" value="like other users" style="ellipse;whiteSpace=wrap;html=1;" parent="1" vertex="1">
          <mxGeometry x="330" y="440" width="100" height="30" as="geometry" />
        </mxCell>
        <mxCell id="c_QXUGH23HBzM4ZQqKcR-25" value="" style="endArrow=classic;dashed=1;html=1;" parent="1" edge="1">
          <mxGeometry width="50" height="50" relative="1" as="geometry">
            <mxPoint x="379.5" y="470" as="sourcePoint" />
            <mxPoint x="380" y="520" as="targetPoint" />
          </mxGeometry>
        </mxCell>
        <mxCell id="c_QXUGH23HBzM4ZQqKcR-26" value="Show matches for people who liked back" style="ellipse;whiteSpace=wrap;html=1;" parent="1" vertex="1">
          <mxGeometry x="320" y="520" width="120" height="50" as="geometry" />
        </mxCell>
        <mxCell id="c_QXUGH23HBzM4ZQqKcR-27" value="dislike other users" style="ellipse;whiteSpace=wrap;html=1;" parent="1" vertex="1">
          <mxGeometry x="450" y="440" width="100" height="37.5" as="geometry" />
        </mxCell>
        <mxCell id="c_QXUGH23HBzM4ZQqKcR-28" value="" style="endArrow=classic;dashed=1;html=1;entryX=0.27;entryY=-0.027;entryDx=0;entryDy=0;entryPerimeter=0;" parent="1" target="c_QXUGH23HBzM4ZQqKcR-27" edge="1">
          <mxGeometry width="50" height="50" relative="1" as="geometry">
            <mxPoint x="390" y="360" as="sourcePoint" />
            <mxPoint x="440" y="410" as="targetPoint" />
          </mxGeometry>
        </mxCell>
        <mxCell id="c_QXUGH23HBzM4ZQqKcR-29" value="Remove suggested user from profile" style="ellipse;whiteSpace=wrap;html=1;" parent="1" vertex="1">
          <mxGeometry x="464" y="520" width="116" height="50" as="geometry" />
        </mxCell>
        <mxCell id="c_QXUGH23HBzM4ZQqKcR-31" value="" style="endArrow=classic;dashed=1;html=1;" parent="1" edge="1">
          <mxGeometry width="50" height="50" relative="1" as="geometry">
            <mxPoint x="507" y="477.5" as="sourcePoint" />
            <mxPoint x="530" y="520" as="targetPoint" />
            <Array as="points" />
          </mxGeometry>
        </mxCell>
        <mxCell id="c_QXUGH23HBzM4ZQqKcR-32" value="Delete match&lt;br&gt;(not made)" style="ellipse;whiteSpace=wrap;html=1;" parent="1" vertex="1">
          <mxGeometry x="210" y="600" width="110" height="40" as="geometry" />
        </mxCell>
        <mxCell id="c_QXUGH23HBzM4ZQqKcR-33" value="" style="endArrow=classic;dashed=1;html=1;entryX=1;entryY=0;entryDx=0;entryDy=0;" parent="1" target="c_QXUGH23HBzM4ZQqKcR-32" edge="1">
          <mxGeometry width="50" height="50" relative="1" as="geometry">
            <mxPoint x="340" y="560" as="sourcePoint" />
            <mxPoint x="300" y="610" as="targetPoint" />
            <Array as="points" />
          </mxGeometry>
        </mxCell>
        <mxCell id="c_QXUGH23HBzM4ZQqKcR-34" value="Log out" style="ellipse;whiteSpace=wrap;html=1;" parent="1" vertex="1">
          <mxGeometry x="510" y="380" width="100" height="40" as="geometry" />
        </mxCell>
        <mxCell id="c_QXUGH23HBzM4ZQqKcR-35" value="" style="endArrow=classic;dashed=1;html=1;entryX=0;entryY=0.25;entryDx=0;entryDy=0;entryPerimeter=0;" parent="1" target="c_QXUGH23HBzM4ZQqKcR-34" edge="1">
          <mxGeometry width="50" height="50" relative="1" as="geometry">
            <mxPoint x="400" y="350" as="sourcePoint" />
            <mxPoint x="470" y="400" as="targetPoint" />
          </mxGeometry>
        </mxCell>
        <mxCell id="c_QXUGH23HBzM4ZQqKcR-36" value="" style="endArrow=classic;dashed=1;html=1;entryX=1;entryY=0.3;entryDx=0;entryDy=0;entryPerimeter=0;exitX=0;exitY=1;exitDx=0;exitDy=0;" parent="1" target="c_QXUGH23HBzM4ZQqKcR-11" edge="1" source="c_QXUGH23HBzM4ZQqKcR-13">
          <mxGeometry width="50" height="50" relative="1" as="geometry">
            <mxPoint x="580" y="252.5" as="sourcePoint" />
            <mxPoint x="470" y="222.5" as="targetPoint" />
            <Array as="points" />
          </mxGeometry>
        </mxCell>
      </root>
    </mxGraphModel>
  </diagram>
  <diagram id="GUn4Pn8s8B4jcH3dNPus" name="Page-2">
    <mxGraphModel dx="941" dy="563" grid="1" gridSize="10" guides="1" tooltips="1" connect="1" arrows="1" fold="1" page="1" pageScale="1" pageWidth="827" pageHeight="1169" math="0" shadow="0">
      <root>
        <mxCell id="xOqkFLa8QIcaqyiqz0Sf-0" />
        <mxCell id="xOqkFLa8QIcaqyiqz0Sf-1" parent="xOqkFLa8QIcaqyiqz0Sf-0" />
        <mxCell id="xOqkFLa8QIcaqyiqz0Sf-6" value="User" style="swimlane;fontStyle=1;align=center;verticalAlign=top;childLayout=stackLayout;horizontal=1;startSize=26;horizontalStack=0;resizeParent=1;resizeParentMax=0;resizeLast=0;collapsible=1;marginBottom=0;" vertex="1" parent="xOqkFLa8QIcaqyiqz0Sf-1">
          <mxGeometry x="110" y="140" width="160" height="250" as="geometry" />
        </mxCell>
        <mxCell id="xOqkFLa8QIcaqyiqz0Sf-7" value="+ userID: id&#xa;+ userName: string&#xa;- email: string&#xa;- birthday: number&#xa;- gender: string&#xa;- interest: string&#xa;" style="text;strokeColor=none;fillColor=none;align=left;verticalAlign=top;spacingLeft=4;spacingRight=4;overflow=hidden;rotatable=0;points=[[0,0.5],[1,0.5]];portConstraint=eastwest;" vertex="1" parent="xOqkFLa8QIcaqyiqz0Sf-6">
          <mxGeometry y="26" width="160" height="94" as="geometry" />
        </mxCell>
        <mxCell id="xOqkFLa8QIcaqyiqz0Sf-8" value="" style="line;strokeWidth=1;fillColor=none;align=left;verticalAlign=middle;spacingTop=-1;spacingLeft=3;spacingRight=3;rotatable=0;labelPosition=right;points=[];portConstraint=eastwest;" vertex="1" parent="xOqkFLa8QIcaqyiqz0Sf-6">
          <mxGeometry y="120" width="160" height="8" as="geometry" />
        </mxCell>
        <mxCell id="xOqkFLa8QIcaqyiqz0Sf-9" value="+ logIn&#xa;+ logOut&#xa;+ updateProfile&#xa;likeUser()&#xa;dislikeUser()&#xa;deleteMatch()&#xa;viewMatches()" style="text;strokeColor=none;fillColor=none;align=left;verticalAlign=top;spacingLeft=4;spacingRight=4;overflow=hidden;rotatable=0;points=[[0,0.5],[1,0.5]];portConstraint=eastwest;" vertex="1" parent="xOqkFLa8QIcaqyiqz0Sf-6">
          <mxGeometry y="128" width="160" height="122" as="geometry" />
        </mxCell>
        <mxCell id="xOqkFLa8QIcaqyiqz0Sf-10" value="Interest" style="swimlane;fontStyle=1;align=center;verticalAlign=top;childLayout=stackLayout;horizontal=1;startSize=26;horizontalStack=0;resizeParent=1;resizeParentMax=0;resizeLast=0;collapsible=1;marginBottom=0;" vertex="1" parent="xOqkFLa8QIcaqyiqz0Sf-1">
          <mxGeometry x="414" y="150" width="160" height="108" as="geometry" />
        </mxCell>
        <mxCell id="xOqkFLa8QIcaqyiqz0Sf-11" value="+ interestID: id&#xa;+ interestName: string" style="text;strokeColor=none;fillColor=none;align=left;verticalAlign=top;spacingLeft=4;spacingRight=4;overflow=hidden;rotatable=0;points=[[0,0.5],[1,0.5]];portConstraint=eastwest;" vertex="1" parent="xOqkFLa8QIcaqyiqz0Sf-10">
          <mxGeometry y="26" width="160" height="44" as="geometry" />
        </mxCell>
        <mxCell id="xOqkFLa8QIcaqyiqz0Sf-12" value="" style="line;strokeWidth=1;fillColor=none;align=left;verticalAlign=middle;spacingTop=-1;spacingLeft=3;spacingRight=3;rotatable=0;labelPosition=right;points=[];portConstraint=eastwest;" vertex="1" parent="xOqkFLa8QIcaqyiqz0Sf-10">
          <mxGeometry y="70" width="160" height="38" as="geometry" />
        </mxCell>
        <mxCell id="xOqkFLa8QIcaqyiqz0Sf-14" value="Match" style="swimlane;fontStyle=1;align=center;verticalAlign=top;childLayout=stackLayout;horizontal=1;startSize=26;horizontalStack=0;resizeParent=1;resizeParentMax=0;resizeLast=0;collapsible=1;marginBottom=0;" vertex="1" parent="xOqkFLa8QIcaqyiqz0Sf-1">
          <mxGeometry x="414" y="300" width="160" height="124" as="geometry" />
        </mxCell>
        <mxCell id="xOqkFLa8QIcaqyiqz0Sf-15" value="user1ID: id&#xa;user1liked: string&#xa;user2ID: ID&#xa;user2liked: string" style="text;strokeColor=none;fillColor=none;align=left;verticalAlign=top;spacingLeft=4;spacingRight=4;overflow=hidden;rotatable=0;points=[[0,0.5],[1,0.5]];portConstraint=eastwest;" vertex="1" parent="xOqkFLa8QIcaqyiqz0Sf-14">
          <mxGeometry y="26" width="160" height="64" as="geometry" />
        </mxCell>
        <mxCell id="xOqkFLa8QIcaqyiqz0Sf-16" value="" style="line;strokeWidth=1;fillColor=none;align=left;verticalAlign=middle;spacingTop=-1;spacingLeft=3;spacingRight=3;rotatable=0;labelPosition=right;points=[];portConstraint=eastwest;" vertex="1" parent="xOqkFLa8QIcaqyiqz0Sf-14">
          <mxGeometry y="90" width="160" height="8" as="geometry" />
        </mxCell>
        <mxCell id="xOqkFLa8QIcaqyiqz0Sf-17" value="checkIfMatch()" style="text;strokeColor=none;fillColor=none;align=left;verticalAlign=top;spacingLeft=4;spacingRight=4;overflow=hidden;rotatable=0;points=[[0,0.5],[1,0.5]];portConstraint=eastwest;" vertex="1" parent="xOqkFLa8QIcaqyiqz0Sf-14">
          <mxGeometry y="98" width="160" height="26" as="geometry" />
        </mxCell>
        <mxCell id="xOqkFLa8QIcaqyiqz0Sf-18" value="" style="line;strokeWidth=2;html=1;" vertex="1" parent="xOqkFLa8QIcaqyiqz0Sf-1">
          <mxGeometry x="350" y="180" width="64" height="10" as="geometry" />
        </mxCell>
        <mxCell id="xOqkFLa8QIcaqyiqz0Sf-19" value="" style="line;strokeWidth=2;html=1;rotation=90;" vertex="1" parent="xOqkFLa8QIcaqyiqz0Sf-1">
          <mxGeometry x="320" y="220" width="40" height="10" as="geometry" />
        </mxCell>
        <mxCell id="xOqkFLa8QIcaqyiqz0Sf-20" value="" style="line;strokeWidth=2;html=1;" vertex="1" parent="xOqkFLa8QIcaqyiqz0Sf-1">
          <mxGeometry x="270" y="248" width="50" height="10" as="geometry" />
        </mxCell>
        <mxCell id="xOqkFLa8QIcaqyiqz0Sf-21" value="1..*" style="text;html=1;strokeColor=none;fillColor=none;align=center;verticalAlign=middle;whiteSpace=wrap;rounded=0;" vertex="1" parent="xOqkFLa8QIcaqyiqz0Sf-1">
          <mxGeometry x="320" y="180" width="40" height="20" as="geometry" />
        </mxCell>
        <mxCell id="xOqkFLa8QIcaqyiqz0Sf-22" value="1..*" style="text;html=1;strokeColor=none;fillColor=none;align=center;verticalAlign=middle;whiteSpace=wrap;rounded=0;" vertex="1" parent="xOqkFLa8QIcaqyiqz0Sf-1">
          <mxGeometry x="320" y="243" width="30" height="20" as="geometry" />
        </mxCell>
        <mxCell id="xOqkFLa8QIcaqyiqz0Sf-24" value="" style="line;strokeWidth=2;html=1;" vertex="1" parent="xOqkFLa8QIcaqyiqz0Sf-1">
          <mxGeometry x="364" y="360" width="50" height="10" as="geometry" />
        </mxCell>
        <mxCell id="xOqkFLa8QIcaqyiqz0Sf-26" value="" style="line;strokeWidth=2;html=1;direction=south;" vertex="1" parent="xOqkFLa8QIcaqyiqz0Sf-1">
          <mxGeometry x="340" y="310" width="10" height="40" as="geometry" />
        </mxCell>
        <mxCell id="xOqkFLa8QIcaqyiqz0Sf-28" value="" style="line;strokeWidth=2;html=1;" vertex="1" parent="xOqkFLa8QIcaqyiqz0Sf-1">
          <mxGeometry x="270" y="300" width="50" height="10" as="geometry" />
        </mxCell>
        <mxCell id="xOqkFLa8QIcaqyiqz0Sf-29" value="1..*" style="text;html=1;strokeColor=none;fillColor=none;align=center;verticalAlign=middle;whiteSpace=wrap;rounded=0;" vertex="1" parent="xOqkFLa8QIcaqyiqz0Sf-1">
          <mxGeometry x="325" y="352" width="40" height="20" as="geometry" />
        </mxCell>
        <mxCell id="xOqkFLa8QIcaqyiqz0Sf-30" value="1..2" style="text;html=1;strokeColor=none;fillColor=none;align=center;verticalAlign=middle;whiteSpace=wrap;rounded=0;" vertex="1" parent="xOqkFLa8QIcaqyiqz0Sf-1">
          <mxGeometry x="315" y="290" width="40" height="20" as="geometry" />
        </mxCell>
      </root>
    </mxGraphModel>
  </diagram>
</mxfile>
